<svg width="59" height="75" viewBox="0 0 59 75" fill="none" xmlns="http://www.w3.org/2000/svg">
<g clip-path="url(#clip0_2098_1461)">
<path d="M38.8012 74.76C38.9113 71.9646 37.1578 69.7791 34.6081 68.8304C32.3633 67.9918 29.7458 68.6355 27.3994 68.356C25.1038 70.9904 22.2491 73.1251 18.8438 74.0738C16.0993 74.8362 13.3377 74.7938 10.5085 74.76C10.4661 74.5651 10.5339 74.6244 10.6186 74.5736C11.4911 74.0145 12.7448 73.5317 13.702 72.998C18.0899 70.533 21.7747 67.2633 24.7395 63.1973L29.2799 63.1634C38.0558 62.9855 47.1111 56.5392 46.5182 47.018C45.9506 37.8949 35.6754 35.8958 29.0089 32.5921C27.0521 31.618 24.9428 30.3813 23.884 28.3991C21.6985 24.3077 24.5193 19.7504 29.0173 19.4454C30.576 19.3353 32.9732 19.3438 34.5319 19.4454C36.3531 19.564 38.5555 20.3603 39.2078 22.2238C40.6987 26.4677 34.498 27.8061 34.1337 23.4436C32.4226 23.3505 29.1359 23.2996 29.4917 25.8409C29.8475 28.3821 31.3214 27.9671 32.2786 28.4753C34.7267 29.7798 37.5221 30.6947 40.0464 31.8891C41.1476 32.4143 42.2319 32.9903 43.2908 33.6002C43.6465 31.4655 43.5279 29.297 43.5449 27.1369C46.9332 25.0023 47.2551 20.5636 44.6461 17.6327C40.8681 13.3634 33.778 13.321 28.5006 13.609C20.4279 14.0495 13.6427 20.5805 16.0738 29.009C18.4457 37.2426 28.5176 38.0558 34.9046 41.6051C42.071 45.5949 39.9363 54.9551 32.4904 57.0644C29.3477 57.9538 26.0186 57.3863 22.7912 57.615C17.8358 65.9842 9.30561 71.6596 0.00458809 74.1755C-0.054708 74.1162 0.478957 73.3792 0.555195 73.2437C3.50306 67.9155 3.43529 61.9859 4.07061 56.0902C4.88381 48.5173 6.23915 40.1312 13.1344 35.6755C11.3047 33.6934 10.2035 31.0505 9.84775 28.3821C9.44961 25.4343 9.77151 22.3679 10.9405 19.6318C6.81517 19.2591 4.00284 15.3286 3.3167 11.4998C7.09471 12.728 11.0506 13.3041 15.0065 13.6175L12.1264 12.3045C9.77151 10.9915 8.06039 9.09406 7.28107 6.47657C6.67117 4.4351 6.62034 2.3428 6.79823 0.225094C10.1951 3.36777 14.3881 6.01067 18.8946 7.23047C27.1029 9.44983 35.5823 6.58669 43.5364 10.119C48.4495 12.3045 53.4643 17.3108 52.0751 23.1811C57.5388 25.1293 60.5629 31.3639 58.1741 36.8106C57.1661 39.1147 55.133 41.1307 52.7104 41.8931C53.4643 40.1058 53.7015 36.3617 51.4652 35.5569C51.355 35.5146 50.8637 35.3706 50.8044 35.3706H46.7808C47.2467 36.404 48.0853 37.1325 48.7629 38.005C55.7091 46.9333 51.2364 59.0296 42.4183 64.6797C41.6813 65.154 40.8766 65.5437 40.1735 66.035C40.4784 66.3061 40.6987 66.1536 41.0544 66.2129C44.68 66.8397 47.6448 69.4572 48.1276 73.2013C48.1869 73.6926 48.1954 74.2602 48.2208 74.76H38.8181H38.8012ZM19.6994 46.8062H25.3325C25.2478 48.7884 24.8835 50.7367 24.4007 52.6511C26.1203 52.6341 27.8907 52.7104 29.6018 52.4732C31.3129 52.236 33.6763 50.7875 33.0918 48.2462C32.7615 46.8231 31.8636 46.3488 30.6437 45.7812C26.6794 43.9261 22.4439 42.6047 18.4711 40.758C17.1835 40.3684 15.8028 41.0376 14.8286 41.8592C10.3052 45.6711 9.55126 55.9547 9.15313 61.5116C9.15313 61.6048 9.12772 61.8928 9.19549 61.8928C14.8286 58.7416 18.8692 53.2356 19.5723 46.73C19.6062 46.6876 19.674 46.8147 19.6994 46.8147V46.8062Z" fill="#003FC7"/>
</g>
<defs>
<clipPath id="clip0_2098_1461">
<rect width="59" height="75" fill="white"/>
</clipPath>
</defs>
</svg>
