<?xml version="1.0" encoding="UTF-8"?>
<svg id="Ebene_2" data-name="Ebene 2" xmlns="http://www.w3.org/2000/svg" viewBox="0 0 1207.46 256.38">
  <defs>
    <style>
      .cls-1 {
        fill: #0003c7;
        stroke-width: 0px;
      }
    </style>
  </defs>
  <g id="Ebene_1-2" data-name="Ebene 1">
    <g>
      <path class="cls-1" d="m1125.91,199.97h-28.67v-116.09h26.55l2.35,15.04c7.28-11.75,21.38-18.57,37.13-18.57,29.14,0,44.18,18.1,44.18,48.18v71.44h-28.67v-64.62c0-19.51-9.64-28.9-24.44-28.9-17.62,0-28.44,12.22-28.44,31.02v62.51Z"/>
      <path class="cls-1" d="m1012.44,181.41c17.62,0,28.91-10.57,28.91-28.43v-6.11l-24.21,1.88c-17.86,1.65-24.68,7.52-24.68,16.92,0,10.58,7.05,15.74,19.98,15.74Zm-9.4,21.62c-24.68,0-39.71-14.33-39.71-36.19s15.51-34.78,43-36.9l34.78-2.58v-2.59c0-15.74-9.4-22.09-23.97-22.09-16.92,0-26.32,7.05-26.32,19.27h-24.44c0-25.15,20.68-41.59,52.17-41.59s50.53,16.92,50.53,49.11v70.5h-25.15l-2.11-17.16c-4.94,11.98-20.68,20.21-38.78,20.21Z"/>
      <rect class="cls-1" x="909.99" y="25.14" width="28.43" height="174.84"/>
      <path class="cls-1" d="m792.93,141.93c0,20.92,12.92,35.25,32.66,35.25s32.19-14.57,32.19-35.25-11.99-35.48-32.19-35.48-32.66,14.57-32.66,35.48Zm-28.91,111.86V83.89h26.55l1.88,17.62c7.05-13.4,22.33-21.15,39.95-21.15,32.66,0,54.28,23.73,54.28,60.16s-19.74,62.51-54.28,62.51c-17.39,0-32.43-6.81-39.72-18.56v69.32h-28.67Z"/>
      <path class="cls-1" d="m679.22,181.41c17.62,0,28.9-10.57,28.9-28.43v-6.11l-24.2,1.88c-17.86,1.65-24.68,7.52-24.68,16.92,0,10.58,7.05,15.74,19.98,15.74Zm-9.4,21.62c-24.68,0-39.71-14.33-39.71-36.19s15.51-34.78,43.01-36.9l34.78-2.58v-2.59c0-15.74-9.4-22.09-23.97-22.09-16.92,0-26.32,7.05-26.32,19.27h-24.44c0-25.15,20.68-41.59,52.17-41.59s50.53,16.92,50.53,49.11v70.5h-25.15l-2.11-17.16c-4.94,11.98-20.68,20.21-38.78,20.21Z"/>
      <path class="cls-1" d="m525.56,199.97h-28.67v-116.09h26.55l2.35,15.04c7.29-11.75,21.39-18.57,37.13-18.57,29.14,0,44.18,18.1,44.18,48.18v71.44h-28.67v-64.62c0-19.51-9.64-28.9-24.44-28.9-17.62,0-28.44,12.22-28.44,31.02v62.51Z"/>
      <path class="cls-1" d="m362.4,253.79v-23.97h17.16c11.28,0,18.33-2.58,23.27-16.21l3.29-8.7-46.76-121.03h30.31l29.84,84.6,31.49-84.6h29.61l-56.87,141.94c-8.69,21.62-20.91,30.55-39.95,30.55-7.99,0-15.04-.94-21.39-2.58Z"/>
      <path class="cls-1" d="m257.09,164.73h27.26c.24,10.1,7.76,16.45,20.92,16.45s20.68-5.4,20.68-13.86c0-5.88-3.06-10.1-13.4-12.45l-20.92-4.94c-20.92-4.7-31.02-14.57-31.02-33.14,0-22.79,19.27-36.42,46.06-36.42s43.71,15.04,43.94,37.6h-27.26c-.23-9.87-6.81-16.21-17.86-16.21s-17.86,5.17-17.86,13.86c0,6.58,5.17,10.81,15.04,13.16l20.92,4.93c19.51,4.46,29.38,13.4,29.38,31.26,0,23.5-19.98,38.07-48.65,38.07s-47.23-15.51-47.23-38.3Z"/>
      <path class="cls-1" d="m67.06,158.58h19.18c-.29,6.75-1.53,13.38-3.17,19.9,5.85-.06,11.88.2,17.71-.61,5.83-.81,13.87-5.74,11.88-14.39-1.12-4.84-4.18-6.46-8.33-8.39-13.5-6.32-27.91-10.81-41.44-17.1-4.38-1.33-9.08.95-12.4,3.75-15.4,12.98-17.97,47.99-19.32,66.9,0,.32-.09,1.3.14,1.3,19.18-10.73,32.93-29.47,35.33-51.62.12-.14.35.29.43.29v-.03Zm65.03,95.16c.37-9.52-5.59-16.96-14.27-20.19-7.64-2.85-16.55-.66-24.54-1.61-7.81,8.97-17.53,16.24-29.13,19.47-9.34,2.6-18.74,2.45-28.38,2.34-.14-.66.09-.46.37-.63,2.97-1.9,7.24-3.55,10.5-5.36,14.94-8.39,27.48-19.52,37.58-33.36l15.46-.12c29.88-.61,60.7-22.55,58.68-54.96-1.93-31.06-36.91-37.86-59.61-49.11-6.66-3.32-13.84-7.53-17.45-14.27-7.44-13.93,2.16-29.44,17.48-30.48,5.31-.37,13.47-.35,18.77,0,6.2.4,13.7,3.11,15.92,9.46,5.08,14.45-16.03,19-17.27,4.15-5.83-.32-17.01-.49-15.8,8.16,1.21,8.65,6.23,7.24,9.49,8.97,8.33,4.44,17.85,7.56,26.44,11.62,3.75,1.79,7.44,3.75,11.04,5.83,1.21-7.27.81-14.65.87-22,11.53-7.27,12.63-22.38,3.75-32.36-12.86-14.53-37-14.68-54.96-13.7-27.48,1.5-50.58,23.73-42.3,52.43,8.07,28.03,42.36,30.8,64.11,42.88,24.4,13.58,17.13,45.45-8.22,52.63-10.7,3.03-22.03,1.1-33.02,1.87C60.72,223.86,31.68,243.18.02,251.75c-.2-.2,1.61-2.71,1.87-3.17,10.04-18.14,9.8-38.32,11.97-58.4,2.77-25.78,7.38-54.33,30.86-69.5-6.23-6.75-9.98-15.75-11.19-24.83-1.36-10.04-.26-20.47,3.72-29.79-14.04-1.27-23.62-14.65-25.95-27.68,12.86,4.18,26.33,6.14,39.8,7.21l-9.8-4.47c-8.02-4.47-13.84-10.93-16.49-19.84-2.08-6.95-2.25-14.07-1.64-21.28,11.56,10.7,25.84,19.7,41.18,23.85,27.94,7.56,56.81-2.19,83.89,9.83,16.73,7.44,33.8,24.48,29.07,44.47,18.6,6.63,28.89,27.86,20.76,46.4-3.43,7.84-10.35,14.71-18.6,17.3,2.57-6.08,3.37-18.83-4.24-21.57-.37-.14-2.05-.63-2.25-.63h-13.7c1.59,3.52,4.44,6,6.75,8.97,23.65,30.39,8.42,71.57-21.6,90.81-2.51,1.61-5.25,2.94-7.64,4.61,1.04.92,1.79.4,3,.61,12.34,2.13,22.44,11.04,24.08,23.79.2,1.67.23,3.6.32,5.31h-32.07Z"/>
    </g>
  </g>
</svg>