<?xml version="1.0" standalone="no"?>
<!DOCTYPE svg PUBLIC "-//W3C//DTD SVG 1.0//EN" "http://www.w3.org/TR/2001/REC-SVG-20010904/DTD/svg10.dtd">
<svg id="3" data-name="Ebene 2" xmlns="http://www.w3.org/2000/svg" viewBox="0 0 211.2 256.38" xmlns:inkscape ="http://www.inkscape.org/namespaces/inkscape" >
<desc>CopyRight:SVG Design Editor;
configurationStart;Unit=smInches;Dpi=96;Division=4;Grid=True;Zoom=2.673977;CanvasW=211.2;CanvasH=256.38;configurationEnd;</desc>
<defs xmlns:inkscape ="http://www.inkscape.org/namespaces/inkscape" >
<style xmlns:inkscape ="http://www.inkscape.org/namespaces/inkscape" >

      .cls-1 {
        fill: #0003c7;
        stroke-width: 0px;
      }
    </style>
</defs>
<g isVisble = "True" inkscape:label = "single_bird Default Layer" inkscape:groupmode = "layer" ><path style="fill:#0003C7;stroke:none; stroke-width:1" d="m67.06,158.58l19.18,0c-0.29,6.75 -1.53,13.38 -3.17,19.9c5.85,-0.06 11.88,0.2 17.71,-0.61c5.83,-0.81 13.87,-5.74 11.88,-14.39c-1.12,-4.84 -4.18,-6.46 -8.33,-8.39c-13.5,-6.32 -27.91,-10.81 -41.44,-17.1c-4.38,-1.33 -9.08,0.95 -12.4,3.75c-15.4,12.98 -17.97,47.99 -19.32,66.9c0,0.32 -0.09,1.3 0.14,1.3c19.18,-10.73 32.93,-29.47 35.33,-51.62c0.12,-0.14 0.35,0.29 0.43,0.29l0,-0.03l-0.01,0zm65.03,95.16c0.37,-9.52 -5.59,-16.96 -14.27,-20.19c-7.64,-2.85 -16.55,-0.66 -24.54,-1.61c-7.81,8.97 -17.53,16.24 -29.13,19.47c-9.34,2.6 -18.74,2.45 -28.38,2.34c-0.14,-0.66 0.09,-0.46 0.37,-0.63c2.97,-1.9 7.24,-3.55 10.5,-5.36c14.94,-8.39 27.48,-19.52 37.58,-33.36l15.46,-0.12c29.88,-0.61 60.7,-22.55 58.68,-54.96c-1.93,-31.06 -36.91,-37.86 -59.61,-49.11c-6.66,-3.32 -13.84,-7.53 -17.45,-14.27c-7.44,-13.93 2.16,-29.44 17.48,-30.48c5.31,-0.37 13.47,-0.35 18.77,0c6.2,0.4 13.7,3.11 15.92,9.46c5.08,14.45 -16.03,19 -17.27,4.15c-5.83,-0.32 -17.01,-0.49 -15.8,8.16c1.21,8.65 6.23,7.24 9.49,8.97c8.33,4.44 17.85,7.56 26.44,11.62c3.75,1.79 7.44,3.75 11.04,5.83c1.21,-7.27 0.81,-14.65 0.87,-22c11.53,-7.27 12.63,-22.38 3.75,-32.36c-12.86,-14.53 -37,-14.68 -54.96,-13.7c-27.48,1.5 -50.58,23.73 -42.3,52.43c8.07,28.03 42.36,30.8 64.11,42.88c24.4,13.58 17.13,45.45 -8.22,52.63c-10.7,3.03 -22.03,1.1 -33.02,1.87c-16.88,28.46 -45.92,47.78 -77.58,56.35c-0.2,-0.2 1.61,-2.71 1.87,-3.17c10.04,-18.14 9.8,-38.32 11.97,-58.4c2.77,-25.78 7.38,-54.33 30.86,-69.5c-6.23,-6.75 -9.98,-15.75 -11.19,-24.83c-1.36,-10.04 -0.26,-20.47 3.72,-29.79c-14.04,-1.27 -23.62,-14.65 -25.95,-27.68c12.86,4.18 26.33,6.14 39.8,7.21l-9.8,-4.47c-8.02,-4.47 -13.84,-10.93 -16.49,-19.84c-2.08,-6.95 -2.25,-14.07 -1.64,-21.28c11.56,10.7 25.84,19.7 41.18,23.85c27.94,7.56 56.81,-2.19 83.89,9.83c16.73,7.44 33.8,24.48 29.07,44.47c18.6,6.63 28.89,27.86 20.76,46.4c-3.43,7.84 -10.35,14.71 -18.6,17.3c2.57,-6.08 3.37,-18.83 -4.24,-21.57c-0.37,-0.14 -2.05,-0.63 -2.25,-0.63l-13.7,0c1.59,3.52 4.44,6 6.75,8.97c23.65,30.39 8.42,71.57 -21.6,90.81c-2.51,1.61 -5.25,2.94 -7.64,4.61c1.04,0.92 1.79,0.4 3,0.61c12.34,2.13 22.44,11.04 24.08,23.79c0.2,1.67 0.23,3.6 0.32,5.31l-32.07,0l-0.03,-0.01l0,0z" class = " cls-1" transform = "matrix(0.9999992,0,0,0.9999992,0,0)" vector-effect="non-scaling-stroke" pen = "1,1" />
</g>
</svg>
